<?xml version="1.0" encoding="UTF-8"?>
<svg xmlns="http://www.w3.org/2000/svg" width="1046" height="1504" viewBox="0 0 1046 1504">
  <!-- White page/background -->
  <rect x="0" y="0" width="1046" height="1504" fill="#ffffff"/>

  <!-- Blue sign body -->
  <path d="M 305 1124 L 305 1127 L 306 1128 L 306 1130 L 307 1131 L 307 1132 L 308 1133 L 309 1133 L 311 1135 L 315 1135 L 316 1136 L 403 1136 L 404 1135 L 407 1135 L 408 1134 L 409 1134 L 413 1130 L 413 1129 L 414 1128 L 414 1071 L 413 1070 L 413 1068 L 409 1064 L 408 1064 L 407 1063 L 355 1063 L 354 1064 L 353 1064 L 346 1072 L 346 1073 L 342 1077 L 342 1078 L 337 1083 L 337 1084 L 333 1088 L 333 1089 L 329 1093 L 329 1094 L 318 1106 L 318 1107 L 315 1110 L 315 1111 L 309 1117 L 309 1118 L 306 1121 L 306 1123 Z M 639 1033 L 639 1035 L 638 1036 L 638 1094 L 640 1099 L 646 1104 L 648 1104 L 649 1105 L 793 1105 L 797 1103 L 802 1097 L 802 1095 L 803 1094 L 803 1035 L 801 1030 L 798 1027 L 794 1025 L 792 1025 L 791 1024 L 651 1024 L 650 1025 L 647 1025 L 642 1028 Z M 481 1025 L 475 1029 L 472 1035 L 472 1229 L 476 1236 L 484 1240 L 566 1240 L 569 1239 L 575 1235 L 578 1228 L 578 1036 L 577 1033 L 569 1025 L 558 1025 L 557 1024 L 543 1024 L 542 1025 L 516 1025 L 515 1024 L 491 1024 L 490 1025 L 489 1024 Z M 306 954 L 306 957 L 305 958 L 305 989 L 306 990 L 306 992 L 308 994 L 308 995 L 309 996 L 310 996 L 312 998 L 314 998 L 315 999 L 404 999 L 405 998 L 407 998 L 408 997 L 409 997 L 413 993 L 413 992 L 414 991 L 414 955 L 413 954 L 412 951 L 410 949 L 409 949 L 406 947 L 313 947 L 312 948 L 311 948 L 307 952 L 307 953 Z M 393 246 L 393 456 L 567 455 L 583 451 L 602 442 L 618 430 L 634 412 L 643 396 L 650 375 L 652 362 L 651 330 L 644 306 L 633 286 L 620 271 L 606 260 L 586 250 L 568 246 Z M 107 93 L 83 126 L 88 1381 L 121 1405 L 925 1405 L 942 1398 L 963 1367 L 963 126 L 956 109 L 924 88 Z M 330 1209 L 340 1209 L 341 1210 L 346 1210 L 347 1211 L 350 1211 L 351 1212 L 353 1212 L 354 1213 L 363 1217 L 366 1220 L 367 1220 L 377 1230 L 377 1231 L 381 1236 L 381 1237 L 385 1244 L 385 1246 L 386 1247 L 386 1250 L 387 1251 L 387 1257 L 388 1258 L 388 1265 L 387 1266 L 387 1272 L 386 1273 L 386 1276 L 385 1277 L 385 1279 L 383 1282 L 383 1284 L 382 1285 L 381 1288 L 377 1293 L 377 1294 L 366 1305 L 365 1305 L 360 1309 L 359 1309 L 354 1312 L 349 1313 L 348 1314 L 345 1314 L 344 1315 L 337 1315 L 336 1316 L 333 1316 L 332 1315 L 324 1315 L 323 1314 L 320 1314 L 319 1313 L 314 1312 L 313 1311 L 310 1310 L 302 1304 L 301 1304 L 293 1296 L 293 1295 L 290 1292 L 289 1289 L 287 1287 L 287 1285 L 286 1284 L 286 1283 L 284 1280 L 284 1278 L 283 1277 L 283 1274 L 282 1273 L 282 1268 L 281 1267 L 281 1257 L 282 1256 L 282 1251 L 283 1250 L 283 1247 L 284 1246 L 284 1244 L 285 1243 L 289 1234 L 292 1231 L 292 1230 L 302 1220 L 303 1220 L 308 1216 L 309 1216 L 314 1213 L 316 1213 L 319 1211 L 322 1211 L 323 1210 L 329 1210 Z M 683 1208 L 693 1208 L 694 1209 L 699 1209 L 700 1210 L 703 1210 L 704 1211 L 709 1212 L 710 1213 L 715 1215 L 720 1219 L 721 1219 L 731 1229 L 731 1230 L 735 1235 L 735 1236 L 739 1243 L 739 1245 L 740 1246 L 740 1248 L 741 1249 L 741 1253 L 742 1254 L 742 1270 L 741 1271 L 741 1275 L 740 1276 L 740 1278 L 739 1279 L 738 1284 L 737 1285 L 736 1288 L 734 1290 L 733 1293 L 731 1295 L 731 1296 L 721 1306 L 720 1306 L 714 1311 L 713 1311 L 712 1312 L 710 1312 L 707 1314 L 702 1315 L 701 1316 L 698 1316 L 697 1317 L 689 1317 L 688 1318 L 687 1318 L 686 1317 L 678 1317 L 677 1316 L 673 1316 L 672 1315 L 670 1315 L 667 1313 L 665 1313 L 664 1312 L 661 1311 L 656 1307 L 655 1307 L 644 1296 L 644 1295 L 641 1292 L 641 1291 L 637 1284 L 637 1282 L 636 1281 L 636 1279 L 635 1278 L 635 1275 L 634 1274 L 634 1269 L 633 1268 L 633 1256 L 634 1255 L 634 1251 L 635 1250 L 635 1247 L 636 1246 L 636 1244 L 637 1243 L 641 1234 L 643 1232 L 643 1231 L 656 1218 L 659 1217 L 661 1215 L 662 1215 L 667 1212 L 672 1211 L 673 1210 L 676 1210 L 677 1209 L 682 1209 Z M 171 1256 L 171 1243 L 185 1239 L 185 1176 L 191 1169 L 274 1127 L 346 1045 L 414 1043 L 413 1025 L 234 1023 L 220 1003 L 220 994 L 296 927 L 652 927 L 690 955 L 867 955 L 873 960 L 873 1220 L 805 1260 L 758 1260 L 751 1233 L 740 1216 L 723 1202 L 698 1193 L 669 1195 L 644 1208 L 628 1226 L 617 1260 L 403 1260 L 400 1243 L 387 1219 L 370 1204 L 342 1194 L 317 1196 L 293 1208 L 272 1234 L 265 1260 L 174 1260 Z M 628 155 L 657 168 L 690 191 L 724 228 L 748 273 L 760 317 L 762 366 L 755 407 L 737 451 L 714 484 L 682 514 L 654 532 L 611 550 L 565 557 L 393 557 L 393 820 L 283 821 L 282 145 L 568 144 Z M 59 44 L 39 75 L 39 1417 L 46 1435 L 73 1451 L 973 1451 L 989 1445 L 1006 1420 L 1006 72 L 1000 57 L 971 39 Z M 89 72 L 117 63 L 929 63 L 957 72 L 978 93 L 987 118 L 987 1375 L 979 1398 L 959 1419 L 930 1429 L 115 1429 L 88 1420 L 68 1400 L 59 1376 L 59 117 L 67 94 Z" fill="#015ab9" fill-rule="evenodd"/>

  <!-- White border, P and camper -->
  <path d="M 325 1211 L 324 1212 L 320 1212 L 319 1213 L 317 1213 L 314 1215 L 312 1215 L 311 1216 L 310 1216 L 308 1218 L 307 1218 L 305 1220 L 304 1220 L 302 1222 L 301 1222 L 294 1229 L 294 1230 L 291 1233 L 290 1236 L 288 1238 L 288 1239 L 286 1242 L 286 1244 L 285 1245 L 285 1247 L 284 1248 L 284 1251 L 283 1252 L 283 1257 L 282 1258 L 282 1266 L 283 1267 L 283 1273 L 284 1274 L 284 1276 L 285 1277 L 286 1282 L 287 1283 L 290 1290 L 292 1292 L 292 1293 L 297 1298 L 297 1299 L 299 1301 L 300 1301 L 304 1305 L 305 1305 L 307 1307 L 308 1307 L 315 1311 L 317 1311 L 318 1312 L 320 1312 L 321 1313 L 324 1313 L 325 1314 L 343 1314 L 344 1313 L 347 1313 L 348 1312 L 351 1312 L 352 1311 L 353 1311 L 354 1310 L 356 1310 L 360 1307 L 363 1306 L 366 1303 L 367 1303 L 376 1294 L 376 1293 L 378 1291 L 378 1290 L 384 1279 L 384 1276 L 385 1275 L 385 1272 L 386 1271 L 386 1263 L 387 1262 L 387 1260 L 386 1259 L 386 1252 L 385 1251 L 385 1248 L 384 1247 L 383 1242 L 382 1241 L 381 1238 L 379 1236 L 378 1233 L 376 1231 L 376 1230 L 368 1222 L 367 1222 L 364 1219 L 363 1219 L 361 1217 L 360 1217 L 355 1214 L 353 1214 L 352 1213 L 350 1213 L 349 1212 L 346 1212 L 345 1211 L 338 1211 L 337 1210 L 333 1210 L 332 1211 Z M 698 1210 L 692 1210 L 691 1209 L 688 1209 L 687 1210 L 678 1210 L 677 1211 L 670 1212 L 669 1213 L 668 1213 L 665 1215 L 663 1215 L 661 1217 L 658 1218 L 656 1220 L 655 1220 L 645 1230 L 645 1231 L 641 1236 L 641 1237 L 638 1242 L 638 1244 L 637 1245 L 637 1247 L 636 1248 L 636 1251 L 635 1252 L 635 1258 L 634 1259 L 634 1266 L 635 1267 L 635 1273 L 636 1274 L 637 1281 L 638 1282 L 638 1283 L 639 1284 L 639 1286 L 642 1290 L 643 1293 L 645 1295 L 645 1296 L 654 1305 L 655 1305 L 658 1308 L 661 1309 L 663 1311 L 665 1311 L 668 1313 L 670 1313 L 671 1314 L 673 1314 L 674 1315 L 678 1315 L 679 1316 L 696 1316 L 697 1315 L 700 1315 L 701 1314 L 704 1314 L 705 1313 L 707 1313 L 708 1312 L 715 1309 L 721 1304 L 722 1304 L 728 1298 L 728 1297 L 731 1294 L 731 1293 L 733 1291 L 733 1290 L 738 1281 L 738 1279 L 739 1278 L 739 1275 L 740 1274 L 740 1270 L 741 1269 L 741 1256 L 740 1255 L 740 1250 L 739 1249 L 739 1246 L 737 1243 L 737 1241 L 736 1240 L 735 1237 L 733 1235 L 732 1232 L 729 1229 L 729 1228 L 723 1222 L 722 1222 L 719 1219 L 718 1219 L 713 1215 L 711 1215 L 708 1213 L 706 1213 L 705 1212 L 703 1212 L 702 1211 L 699 1211 Z M 172 1256 L 264 1259 L 274 1228 L 289 1210 L 316 1195 L 344 1193 L 369 1202 L 389 1220 L 399 1237 L 404 1259 L 616 1259 L 626 1227 L 645 1206 L 668 1194 L 691 1191 L 713 1196 L 733 1208 L 748 1225 L 759 1259 L 805 1259 L 872 1220 L 872 961 L 864 956 L 690 956 L 651 928 L 297 928 L 221 995 L 222 1004 L 236 1023 L 414 1024 L 416 1041 L 348 1045 L 273 1129 L 191 1170 L 186 1177 L 186 1240 L 173 1242 Z M 304 1123 L 307 1119 L 307 1118 L 312 1113 L 312 1112 L 316 1108 L 316 1107 L 321 1102 L 321 1101 L 326 1096 L 326 1095 L 330 1091 L 330 1090 L 335 1085 L 335 1084 L 338 1081 L 338 1080 L 343 1075 L 343 1074 L 353 1063 L 354 1063 L 355 1062 L 357 1062 L 358 1061 L 405 1061 L 406 1062 L 408 1062 L 413 1066 L 413 1067 L 415 1070 L 415 1095 L 416 1096 L 416 1110 L 415 1111 L 415 1112 L 416 1113 L 415 1114 L 416 1115 L 416 1116 L 415 1117 L 416 1118 L 415 1119 L 415 1129 L 413 1131 L 413 1132 L 408 1136 L 406 1136 L 405 1137 L 314 1137 L 313 1136 L 311 1136 L 310 1135 L 309 1135 L 305 1131 L 305 1129 L 304 1128 Z M 638 1032 L 643 1026 L 649 1023 L 792 1023 L 793 1024 L 795 1024 L 802 1030 L 804 1034 L 804 1095 L 803 1096 L 803 1098 L 797 1104 L 793 1106 L 648 1106 L 644 1104 L 639 1099 L 637 1095 L 637 1035 L 638 1034 Z M 480 1024 L 483 1023 L 566 1023 L 573 1026 L 578 1032 L 579 1035 L 579 1230 L 577 1234 L 570 1240 L 567 1241 L 483 1241 L 478 1239 L 473 1234 L 471 1230 L 471 1034 L 473 1030 Z M 305 953 L 307 951 L 307 950 L 308 949 L 309 949 L 311 947 L 312 947 L 313 946 L 406 946 L 407 947 L 409 947 L 414 952 L 414 953 L 415 954 L 415 958 L 416 959 L 416 961 L 415 962 L 416 963 L 415 964 L 415 992 L 411 997 L 410 997 L 408 999 L 406 999 L 405 1000 L 314 1000 L 313 999 L 310 998 L 306 994 L 306 993 L 304 990 L 304 957 L 305 956 Z M 630 157 L 581 146 L 283 145 L 283 819 L 392 819 L 394 555 L 578 555 L 607 550 L 640 538 L 683 512 L 712 485 L 738 447 L 753 410 L 761 364 L 759 318 L 748 276 L 732 242 L 711 213 L 674 180 Z M 392 246 L 394 244 L 570 245 L 594 252 L 609 261 L 626 276 L 638 292 L 648 313 L 653 335 L 654 353 L 651 377 L 646 392 L 633 415 L 616 433 L 599 445 L 586 451 L 568 456 L 393 457 Z M 955 72 L 935 65 L 111 65 L 69 93 L 60 119 L 60 1374 L 68 1398 L 90 1420 L 117 1428 L 922 1428 L 957 1419 L 977 1399 L 986 1372 L 986 120 L 978 95 Z M 105 93 L 121 87 L 925 87 L 958 110 L 965 131 L 965 1361 L 958 1383 L 941 1400 L 920 1407 L 126 1407 L 105 1400 L 82 1369 L 82 125 Z M 49 39 L 32 68 L 32 1424 L 39 1442 L 66 1458 L 980 1458 L 996 1452 L 1013 1427 L 1013 65 L 1007 50 L 978 32 L 67 32 Z M 57 44 L 73 38 L 972 38 L 1002 58 L 1008 78 L 1008 1415 L 986 1448 L 71 1452 L 43 1432 L 38 74 Z" fill="#ffffff" fill-rule="evenodd"/>
</svg>
